<svg width="64" height="64" viewBox="0 0 64 64" fill="none" xmlns="http://www.w3.org/2000/svg">
  <rect width="64" height="64" rx="18" fill="#3252DF"/>
  <path d="M20 22.5C20 18.9101 22.9101 16 26.5 16H41C42.6569 16 44 17.3431 44 19C44 20.6569 42.6569 22 41 22H28C26.8954 22 26 22.8954 26 24V28H39.5C43.0899 28 46 30.9101 46 34.5V35.5C46 42.4036 40.4036 48 33.5 48H20C18.3431 48 17 46.6569 17 45C17 43.3431 18.3431 42 20 42H33.5C37.0899 42 40 39.0899 40 35.5V34.5C40 34.2239 39.7761 34 39.5 34H23C21.3431 34 20 32.6569 20 31V22.5Z" fill="white"/>
  <circle cx="45" cy="45" r="4" fill="#FFCE57"/>
</svg>
