<svg width="29" height="48" viewBox="0 0 29 48" fill="none" xmlns="http://www.w3.org/2000/svg">
<path d="M27.5 41C27.5 42.031 26.5858 43.3993 24.1009 44.5989C21.7214 45.7476 18.3288 46.5 14.5 46.5C10.6712 46.5 7.27857 45.7476 4.89908 44.5989C2.4142 43.3993 1.5 42.031 1.5 41C1.5 39.969 2.4142 38.6007 4.89908 37.4011C7.27857 36.2524 10.6712 35.5 14.5 35.5C18.3288 35.5 21.7214 36.2524 24.1009 37.4011C26.5858 38.6007 27.5 39.969 27.5 41Z" stroke="#152C5B" stroke-width="3"/>
<path d="M26.5 12C26.5 15.0589 25.0543 22.1164 22.644 28.4519C21.4447 31.6043 20.0469 34.4672 18.5455 36.5133C16.9869 38.6373 15.6024 39.5 14.5 39.5C13.3976 39.5 12.0131 38.6373 10.4545 36.5133C8.95306 34.4672 7.55533 31.6043 6.35603 28.4519C3.94573 22.1164 2.5 15.0589 2.5 12C2.5 6.36222 7.70161 1.5 14.5 1.5C21.2984 1.5 26.5 6.36222 26.5 12Z" fill="white" stroke="#152C5B" stroke-width="3"/>
<circle cx="15" cy="14" r="4.5" stroke="#FF4968" stroke-width="3"/>
</svg>
