<svg width="36" height="45" viewBox="0 0 36 45" fill="none" xmlns="http://www.w3.org/2000/svg">
<path d="M2.5 27C2.5 25.6193 3.61929 24.5 5 24.5H18C19.3807 24.5 20.5 25.6193 20.5 27V34C20.5 35.3807 19.3807 36.5 18 36.5H5C3.61929 36.5 2.5 35.3807 2.5 34V27Z" stroke="#152C5B" stroke-width="3"/>
<line x1="5.5" y1="37.5" x2="5.5" y2="43.5" stroke="#152C5B" stroke-width="3" stroke-linecap="round"/>
<line x1="17.5" y1="37.5" x2="17.5" y2="43.5" stroke="#152C5B" stroke-width="3" stroke-linecap="round"/>
<line x1="11.5" y1="14.5" x2="11.5" y2="22.5" stroke="#152C5B" stroke-width="3" stroke-linecap="round"/>
<line x1="15" y1="13" x2="15" y2="16" stroke="#152C5B" stroke-width="2" stroke-linecap="round"/>
<path d="M7.17951 3.63195C7.33049 3.25053 7.6991 3 8.10932 3H14.8907C15.3009 3 15.6695 3.25053 15.8205 3.63195L18.9872 11.632C19.247 12.2883 18.7633 13 18.0573 13H4.94265C4.23672 13 3.75303 12.2883 4.01284 11.632L7.17951 3.63195Z" stroke="#FF4968" stroke-width="2"/>
</svg>
