<svg width="48" height="36" viewBox="0 0 48 36" fill="none" xmlns="http://www.w3.org/2000/svg">
<mask id="path-1-inside-1" fill="white">
<path fill-rule="evenodd" clip-rule="evenodd" d="M17.5366 0C16.6305 0 15.8376 0.609168 15.6041 1.48468L14.5 5.625H8C3.58172 5.625 0 9.20672 0 13.625V28C0 32.4183 3.58172 36 8 36H40C44.4183 36 48 32.4183 48 28V13.625C48 9.20672 44.4183 5.625 40 5.625H31.5L30.3959 1.48467C30.1624 0.609168 29.3695 0 28.4634 0H17.5366Z"/>
</mask>
<path d="M15.6041 1.48468L18.5028 2.25766V2.25766L15.6041 1.48468ZM14.5 5.625V8.625H16.8048L17.3987 6.39799L14.5 5.625ZM31.5 5.625L28.6013 6.39799L29.1952 8.625H31.5V5.625ZM30.3959 1.48467L33.2946 0.711687L33.2946 0.711685L30.3959 1.48467ZM18.5028 2.25766C18.3861 2.69542 17.9896 3 17.5366 3V-3C15.2713 -3 13.2891 -1.47708 12.7054 0.711689L18.5028 2.25766ZM17.3987 6.39799L18.5028 2.25766L12.7054 0.711687L11.6013 4.85201L17.3987 6.39799ZM8 8.625H14.5V2.625H8V8.625ZM3 13.625C3 10.8636 5.23858 8.625 8 8.625V2.625C1.92487 2.625 -3 7.54987 -3 13.625H3ZM3 28V13.625H-3V28H3ZM8 33C5.23858 33 3 30.7614 3 28H-3C-3 34.0751 1.92487 39 8 39V33ZM40 33H8V39H40V33ZM45 28C45 30.7614 42.7614 33 40 33V39C46.0751 39 51 34.0751 51 28H45ZM45 13.625V28H51V13.625H45ZM40 8.625C42.7614 8.625 45 10.8636 45 13.625H51C51 7.54987 46.0751 2.625 40 2.625V8.625ZM31.5 8.625H40V2.625H31.5V8.625ZM27.4972 2.25766L28.6013 6.39799L34.3987 4.85201L33.2946 0.711687L27.4972 2.25766ZM28.4634 3C28.0104 3 27.6139 2.69542 27.4972 2.25766L33.2946 0.711685C32.7109 -1.47708 30.7287 -3 28.4634 -3V3ZM17.5366 3H28.4634V-3H17.5366V3Z" fill="#152C5B" mask="url(#path-1-inside-1)"/>
<circle cx="24" cy="20" r="6.5" stroke="#FF4968" stroke-width="3"/>
<line x1="34.5" y1="12.5" x2="40.5" y2="12.5" stroke="#152C5B" stroke-width="3" stroke-linecap="round"/>
</svg>
